<svg width="300" height="450" viewBox="0 0 300 450" fill="none" xmlns="http://www.w3.org/2000/svg">
<g opacity="0.2">
<mask id="mask0_1_223" style="mask-type:luminance" maskUnits="userSpaceOnUse" x="0" y="0" width="300" height="450">
<path d="M0 0H300V449.91H0V0Z" fill="white"/>
</mask>
<g mask="url(#mask0_1_223)">
<path d="M75.0158 449.91C116.408 449.91 150 416.318 150 374.926V299.939H75.0158C33.6241 299.939 0.0292969 333.534 0.0292969 374.926C0.0292969 416.318 33.6241 449.91 75.0158 449.91Z" fill="#0ACF83"/>
<path d="M0.0292969 224.955C0.0292969 183.563 33.6241 149.971 75.0158 149.971H150V299.939H75.0158C33.6241 299.939 0.0292969 266.347 0.0292969 224.955Z" fill="#A259FF"/>
<path d="M0.0292969 74.9843C0.0292969 33.5925 33.6241 0 75.0158 0H150V149.971H75.0158C33.6241 149.971 0.0292969 116.376 0.0292969 74.9843Z" fill="#F24E1E"/>
<path d="M150 0H224.984C266.376 0 299.971 33.5925 299.971 74.9843C299.971 116.376 266.376 149.971 224.984 149.971H150V0Z" fill="#FF7262"/>
<path d="M299.971 224.955C299.971 266.347 266.376 299.939 224.984 299.939C183.593 299.939 150 266.347 150 224.955C150 183.563 183.593 149.971 224.984 149.971C266.376 149.971 299.971 183.563 299.971 224.955Z" fill="#1ABCFE"/>
</g>
</g>
</svg>
